<svg xmlns="http://www.w3.org/2000/svg" viewBox="0 0 48 48" fill="none">
  <!-- Background circle -->
  <circle cx="24" cy="24" r="24" fill="#004ac6"/>
  <!-- Kidney shape: geometric line-art style -->
  <!-- Left lobe -->
  <path d="M18 14 C10 14 8 19 8 24 C8 30 12 35 18 35 C20 35 21 33 21 31 C21 28 19 27 19 24 C19 21 21 20 21 17 C21 15 20 14 18 14 Z"
        fill="none" stroke="#ffffff" stroke-width="2" stroke-linejoin="round"/>
  <!-- Right lobe -->
  <path d="M30 14 C38 14 40 19 40 24 C40 30 36 35 30 35 C28 35 27 33 27 31 C27 28 29 27 29 24 C29 21 27 20 27 17 C27 15 28 14 30 14 Z"
        fill="none" stroke="#38bdf8" stroke-width="2" stroke-linejoin="round"/>
  <!-- Center connector -->
  <path d="M21 24 L27 24" stroke="#ffffff" stroke-width="2" stroke-linecap="round"/>
  <!-- Pelvis hint -->
  <path d="M21 27 C21 29 27 29 27 27" stroke="#38bdf8" stroke-width="1.5" stroke-linecap="round" fill="none"/>
</svg>
